<svg width="30" height="30" viewBox="0 0 30 30" fill="none" xmlns="http://www.w3.org/2000/svg">
<path fill-rule="evenodd" clip-rule="evenodd" d="M30 15.0083C30 14.758 29.8969 14.5189 29.7253 14.3389L20.445 4.96488C20.0784 4.59457 19.485 4.59551 19.1194 4.96488C18.7528 5.33426 18.7528 5.93426 19.1194 6.30363L26.8003 14.0614H0.9375C0.42 14.0614 0 14.4852 0 15.0083C0 15.5314 0.42 15.9552 0.9375 15.9552H26.7994L19.1194 23.713C18.7528 24.0824 18.7537 24.6824 19.1194 25.0518C19.4859 25.4211 20.0794 25.4211 20.445 25.0518L29.7253 15.6777C29.9006 15.5005 29.9972 15.2568 30 15.0083Z" fill="#121313"/>
</svg>
